<?xml version="1.0" encoding="UTF-8"?><!DOCTYPE svg PUBLIC "-//W3C//DTD SVG 1.1//EN" "http://www.w3.org/Graphics/SVG/1.1/DTD/svg11.dtd"><svg xmlns="http://www.w3.org/2000/svg" xmlns:xlink="http://www.w3.org/1999/xlink" version="1.1" id="Add_to_list" x="0px" y="0px" viewBox="0 0 20 20" xml:space="preserve"><path d="M19.4 9H16V5.6c0-.6-.4-.6-1-.6s-1 0-1 .6V9h-3.4c-.6 0-.6.4-.6 1s0 1 .6 1H14v3.4c0 .6.4.6 1 .6s1 0 1-.6V11h3.4c.6 0 .6-.4.6-1s0-1-.6-1zm-12 0H.6C0 9 0 9.4 0 10s0 1 .6 1h6.8c.6 0 .6-.4.6-1s0-1-.6-1zm0 5H.6c-.6 0-.6.4-.6 1s0 1 .6 1h6.8c.6 0 .6-.4.6-1s0-1-.6-1zm0-10H.6C0 4 0 4.4 0 5s0 1 .6 1h6.8C8 6 8 5.6 8 5s0-1-.6-1z"/><metadata><rdf:RDF xmlns:rdf="http://www.w3.org/1999/02/22-rdf-syntax-ns#" xmlns:rdfs="http://www.w3.org/2000/01/rdf-schema#" xmlns:dc="http://purl.org/dc/elements/1.1/"><rdf:Description about="https://iconscout.com/legal#licenses" dc:title="add,to,list" dc:description="add,to,list" dc:publisher="Iconscout" dc:date="2017-09-14" dc:format="image/svg+xml" dc:language="en"><dc:creator><rdf:Bag><rdf:li>Daniel Bruce</rdf:li></rdf:Bag></dc:creator></rdf:Description></rdf:RDF></metadata></svg>