<svg xmlns="http://www.w3.org/2000/svg" viewBox="0 0 25 25"><g data-name="Icon 1"><rect width="1" height="12" x="19" y="5"/><rect width="12" height="1" x="5" y="19"/><rect width="1" height="5" x="7" y="13"/><rect width="1" height="8" x="10" y="10"/><rect width="1" height="4" x="13" y="7"/><rect width="1" height="6" x="16" y="5"/><path d="M15,18a3,3,0,1,1,3-3A3,3,0,0,1,15,18Zm0-5a2,2,0,1,0,2,2A2,2,0,0,0,15,13Z"/><rect width="1" height="4.24" x="17.5" y="15.88" transform="rotate(-45 17.998 18.005)"/></g></svg>