<svg xmlns="http://www.w3.org/2000/svg" enable-background="new 0 0 64 64" viewBox="0 0 64 64"><path d="M13.81,42.55c-0.38-0.38-0.99-0.38-1.37,0l-2,2l-2-2c-0.38-0.38-0.99-0.38-1.37,0s-0.38,0.99,0,1.37l2,2l-2,2
		c-0.38,0.38-0.38,0.99,0,1.37c0.19,0.19,0.44,0.28,0.69,0.28c0.25,0,0.5-0.09,0.69-0.28l2-2l2,2c0.19,0.19,0.44,0.28,0.69,0.28
		c0.25,0,0.5-0.09,0.69-0.28c0.38-0.38,0.38-0.99,0-1.37l-2-2l2-2C14.19,43.55,14.19,42.93,13.81,42.55z"/><path d="M61.8,17.01h-1.41V8.6c0-0.54-0.43-0.97-0.97-0.97H12.6c-3.11,0-5.65,2.53-5.65,5.65c0,0.08,0.01,0.15,0.01,0.23
		c0,0.01-0.01,0.03-0.01,0.04v22.54C2.91,37.53,0,41.39,0,45.92c0,5.76,4.68,10.44,10.44,10.44c3.42,0,6.45-1.66,8.36-4.21h41.65
		c1.96,0,3.55-1.59,3.55-3.55V19.21C64,18,63.01,17.01,61.8,17.01z M62.06,38.74h-7.38c-2.1,0-3.81-1.71-3.81-3.81
		c0-2.1,1.71-3.81,3.81-3.81h7.38V38.74z M12.6,9.57h45.84v7.42H12.6c-2.05,0-3.71-1.66-3.71-3.71C8.89,11.24,10.56,9.57,12.6,9.57z
		 M10.44,54.43c-4.69,0-8.5-3.81-8.5-8.5s3.81-8.5,8.5-8.5s8.5,3.81,8.5,8.5S15.13,54.43,10.44,54.43z M60.45,50.22h-40.5
		c0.6-1.31,0.93-2.76,0.93-4.29c0-5.76-4.68-10.44-10.44-10.44c-0.53,0-1.04,0.05-1.54,0.13V17.54c0.99,0.87,2.29,1.4,3.71,1.4
		h46.14c0.03,0,0.05,0.02,0.08,0.02h2.97c0.14,0,0.26,0.12,0.26,0.26v9.98h-7.38c-3.17,0-5.75,2.58-5.75,5.75
		c0,3.17,2.58,5.75,5.75,5.75h7.38v7.93C62.06,49.5,61.34,50.22,60.45,50.22z"/><path d="M15.67 14.53h37.34c.54 0 .97-.43.97-.97 0-.54-.43-.97-.97-.97H15.67c-.54 0-.97.43-.97.97C14.7 14.09 15.14 14.53 15.67 14.53zM53.51 34.93c0 1.63 1.32 2.95 2.95 2.95s2.95-1.32 2.95-2.95c0-1.63-1.32-2.95-2.95-2.95S53.51 33.31 53.51 34.93zM56.46 33.92c.56 0 1.01.45 1.01 1.01 0 .56-.45 1.01-1.01 1.01-.56 0-1.01-.45-1.01-1.01C55.45 34.38 55.91 33.92 56.46 33.92z"/></svg>