<?xml version="1.0" encoding="UTF-8" standalone="no"?>
<svg xmlns:dc="http://purl.org/dc/elements/1.1/" xmlns:cc="http://creativecommons.org/ns#" xmlns:rdf="http://www.w3.org/1999/02/22-rdf-syntax-ns#" xmlns:svg="http://www.w3.org/2000/svg" xmlns="http://www.w3.org/2000/svg" xmlns:sodipodi="http://sodipodi.sourceforge.net/DTD/sodipodi-0.dtd" xmlns:inkscape="http://www.inkscape.org/namespaces/inkscape" width="16px" height="16px" viewBox="0 0 16 16" id="svg2" version="1.1" inkscape:version="0.91 r13725" sodipodi:docname="46.svg">
  <defs id="defs4">
    <pattern y="0" x="0" height="6" width="6" patternUnits="userSpaceOnUse" id="EMFhbasepattern"/>
  </defs>
  <sodipodi:namedview id="base" pagecolor="#ffffff" bordercolor="#666666" borderopacity="1.0" inkscape:pageopacity="0.0" inkscape:pageshadow="2" inkscape:zoom="22.4" inkscape:cx="2.6101883" inkscape:cy="5.6380522" inkscape:document-units="px" inkscape:current-layer="layer1" showgrid="true" units="px" inkscape:window-width="1366" inkscape:window-height="715" inkscape:window-x="-8" inkscape:window-y="-8" inkscape:window-maximized="1" inkscape:snap-bbox="true" inkscape:bbox-paths="true" inkscape:bbox-nodes="true" inkscape:snap-bbox-edge-midpoints="true" inkscape:snap-bbox-midpoints="true" inkscape:snap-global="true">
    <inkscape:grid type="xygrid" id="grid3336"/>
  </sodipodi:namedview>
  
  <g inkscape:label="Layer 1" inkscape:groupmode="layer" id="layer1" transform="translate(0,-1036.3622)">
    <path style="color:#000000;font-style:normal;font-variant:normal;font-weight:normal;font-stretch:normal;font-size:medium;line-height:normal;font-family:sans-serif;text-indent:0;text-align:start;text-decoration:none;text-decoration-line:none;text-decoration-style:solid;text-decoration-color:#000000;letter-spacing:normal;word-spacing:normal;text-transform:none;direction:ltr;block-progression:tb;writing-mode:lr-tb;baseline-shift:baseline;text-anchor:start;white-space:normal;clip-rule:nonzero;display:inline;overflow:visible;visibility:visible;opacity:1;isolation:auto;mix-blend-mode:normal;color-interpolation:sRGB;color-interpolation-filters:linearRGB;solid-color:#000000;solid-opacity:1;fill:#000000;fill-opacity:1;fill-rule:nonzero;stroke:none;stroke-width:1;stroke-linecap:butt;stroke-linejoin:miter;stroke-miterlimit:4;stroke-dasharray:none;stroke-dashoffset:0;stroke-opacity:1;color-rendering:auto;image-rendering:auto;shape-rendering:auto;text-rendering:auto;enable-background:accumulate" d="M 14 1.9609375 L 0.013671875 4.5859375 L 0.013671875 5 L 0 5 L 0 5.5 L 0 15 L 16 15 L 16 5 L 14 5 L 14 1.9609375 z M 13 3.1660156 L 13 5 L 3.2304688 5 L 13 3.1660156 z M 1 6 L 5.03125 6 C 3.8060254 6.9124557 3 8.359565 3 10 C 3 11.640541 3.8058907 13.087556 5.03125 14 L 1 14 L 1 6 z M 8 6 C 10.215061 6 12 7.785 12 10 C 12 12.2151 10.215061 14 8 14 C 5.7849387 14 4 12.2151 4 10 C 4 7.785 5.7849387 6 8 6 z M 10.96875 6 L 15 6 L 15 14 L 10.96875 14 C 12.194109 13.087556 13 11.640541 13 10 C 13 8.359565 12.193975 6.9124557 10.96875 6 z M 7.5 6.5 L 7.5 7.1289062 C 6.8878648 7.3956189 6.4873218 8.065361 6.5019531 8.7910156 C 6.5106931 9.2242156 6.6329515 9.6280594 6.8867188 9.9433594 C 7.140486 10.258559 7.5295412 10.4649 7.9550781 10.5 L 7.9355469 10.5 C 8.2533617 10.539 8.1941571 10.509991 8.3652344 10.775391 C 8.5808666 11.113591 8.5022729 11.650106 8.2382812 11.878906 C 7.9742505 12.107706 7.7039176 12.068769 7.4882812 11.730469 L 6.6445312 12.267578 C 6.8505089 12.590685 7.1604482 12.802573 7.5 12.90625 L 7.5 13.5 L 8.5 13.5 L 8.5 12.865234 C 8.6391742 12.808093 8.7739904 12.737289 8.8945312 12.632812 C 9.5807277 12.038012 9.6996524 11.007981 9.2089844 10.238281 C 8.9621316 9.8508812 8.5445558 9.5657594 8.0566406 9.5058594 L 8.046875 9.5058594 L 8.0371094 9.5058594 C 7.8561354 9.4908594 7.7545608 9.4279594 7.6660156 9.3183594 C 7.5774706 9.2083594 7.5071404 9.0304375 7.5019531 8.7734375 C 7.4927131 8.3150375 7.7856999 8.0134594 8.0625 8.0058594 L 8.0664062 8.0058594 L 8.0703125 8.0058594 C 8.1663145 8.0058594 8.2699199 8.0358469 8.375 8.1230469 L 9.015625 7.3554688 C 8.8645035 7.2294883 8.6882667 7.135228 8.5 7.0761719 L 8.5 6.5 L 7.5 6.5 z " transform="translate(0,1036.3622)" id="rect4690"/>
  </g>

	
	
	<metadata>
		<rdf:RDF xmlns:rdf="http://www.w3.org/1999/02/22-rdf-syntax-ns#" xmlns:rdfs="http://www.w3.org/2000/01/rdf-schema#" xmlns:dc="http://purl.org/dc/elements/1.1/">
			<rdf:Description about="https://iconscout.com/legal#licenses" dc:title="Finanace, Personal, Pocket, Dollar, Cash, Money, Income" dc:description="Finanace, Personal, Pocket, Dollar, Cash, Money, Income" dc:publisher="Iconscout" dc:date="2016-12-14" dc:format="image/svg+xml" dc:language="en">
				<dc:creator>
					<rdf:Bag>
						<rdf:li>Jemis Mali</rdf:li>
					</rdf:Bag>
				</dc:creator>
			</rdf:Description>
		</rdf:RDF>
    </metadata></svg>
