<svg xmlns="http://www.w3.org/2000/svg" enable-background="new 0 0 64 64" viewBox="0 0 64 64"><path fill="#231f20" d="M32,5C17.1,5,5,17.1,5,32s12.1,27,27,27s27-12.1,27-27S46.9,5,32,5z M32,57C18.2,57,7,45.8,7,32S18.2,7,32,7
			s25,11.2,25,25S45.8,57,32,57z"/><path fill="#231f20" d="M32 13c-2.8 0-5 2.2-5 5s2.2 5 5 5 5-2.2 5-5S34.8 13 32 13zM32 21c-1.7 0-3-1.3-3-3s1.3-3 3-3 3 1.3 3 3S33.7 21 32 21zM32 25c-2.8 0-5 2.2-5 5v16c0 2.8 2.2 5 5 5s5-2.2 5-5V30C37 27.2 34.8 25 32 25zM35 46c0 1.7-1.3 3-3 3s-3-1.3-3-3V30c0-1.7 1.3-3 3-3s3 1.3 3 3V46z"/></svg>