<svg xmlns="http://www.w3.org/2000/svg" viewBox="0 0 200 200"><path d="M177.55,99.4H156.73a7.81,7.81,0,0,0-7.35,5.24H143.9a7.82,7.82,0,0,0-7.28,5c-.64,0-1.27,0-1.92,0A51.15,51.15,0,0,0,112,115.5L82.82,130.74l-47.6-28.27a13.63,13.63,0,0,0-16,21.91l51.3,45.53a22.31,22.31,0,0,0,14.74,5.76,20.35,20.35,0,0,0,2.91-.21c7.13-1,14.64-3.15,21.89-5.21,8.93-2.53,18.12-5.11,26.24-5.47a7.84,7.84,0,0,0,7.61,6.05h5.48a7.81,7.81,0,0,0,7.35,5.24h20.82a7.83,7.83,0,0,0,7.82-7.82v-61A7.83,7.83,0,0,0,177.55,99.4Zm-68.63,66.85c-7.13,2-14.49,4.11-21.35,5.08a17.79,17.79,0,0,1-14.29-4.54L22,121.26a9.46,9.46,0,0,1-.31-13.87,9.65,9.65,0,0,1,11.42-1.34l45.4,27-.24.13a10.84,10.84,0,1,0,10.26,19.1L123.37,133a2.08,2.08,0,0,0-2-3.65L86.5,148.59A6.7,6.7,0,0,1,78.15,147a6.67,6.67,0,0,1,2-10.19l33.71-17.64a46.93,46.93,0,0,1,20.88-5.42c.44,0,.87,0,1.3,0v46.83C127.48,161,118.06,163.65,108.92,166.25ZM140.24,163V112.46a3.66,3.66,0,0,1,3.66-3.66h5v57.87h-5A3.67,3.67,0,0,1,140.24,163Zm41,5.24a3.67,3.67,0,0,1-3.66,3.66H156.73a3.66,3.66,0,0,1-3.66-3.66v-61a3.67,3.67,0,0,1,3.66-3.66h20.82a3.67,3.67,0,0,1,3.66,3.66ZM160.8,140a5.57,5.57,0,1,0,5.57,5.57A5.57,5.57,0,0,0,160.8,140Zm0,7a1.4,1.4,0,1,1,1.4-1.4A1.4,1.4,0,0,1,160.8,147Zm0,8.59a5.57,5.57,0,1,0,5.57,5.56A5.56,5.56,0,0,0,160.8,155.54Zm0,7a1.4,1.4,0,1,1,1.4-1.4A1.4,1.4,0,0,1,160.8,162.5ZM135.17,53.21A3.18,3.18,0,0,0,132,50a6.16,6.16,0,0,1-2.26-11.9l.38-.15V36.91a1.5,1.5,0,0,1,3,0v.88l.45.12a6.16,6.16,0,0,1,4.59,6,1.5,1.5,0,1,1-3,0A3.17,3.17,0,1,0,132,47a6.16,6.16,0,0,1,1.57,12.12l-.45.12V60a1.5,1.5,0,0,1-3,0v-.9l-.38-.15a6.13,6.13,0,0,1-3.91-5.73,1.5,1.5,0,0,1,3,0,3.17,3.17,0,1,0,6.34,0Zm-3.17,27a31.78,31.78,0,1,0-31.79-31.78A31.82,31.82,0,0,0,132,80.23Zm0-59.4a27.62,27.62,0,1,1-27.62,27.62A27.65,27.65,0,0,1,132,20.83Zm-16.26,45.3a24.16,24.16,0,0,0,3,2.31l.21.13a23.44,23.44,0,0,0,4.53,2.28c.6.23,1.22.44,1.84.61a24.07,24.07,0,0,0,6.71,1,23.65,23.65,0,0,0,4.62-.45,23.89,23.89,0,0,0,19.47-23.51,23.79,23.79,0,0,0-1-6.67c-.18-.63-.39-1.24-.62-1.84a22.06,22.06,0,0,0-2.23-4.39l-.18-.29a24.17,24.17,0,0,0-2.34-3c-.26-.29-.54-.57-.81-.84a23.82,23.82,0,0,0-8.41-5.39,22.82,22.82,0,0,0-2.3-.74,24.31,24.31,0,0,0-6.25-.82,24,24,0,0,0-23.28,30.17,22.07,22.07,0,0,0,.75,2.3,23.79,23.79,0,0,0,5.42,8.36C115.17,65.61,115.46,65.88,115.74,66.13Zm-3-12.55a19.58,19.58,0,0,1-.68-5.13A19.88,19.88,0,0,1,132,28.66a20.31,20.31,0,0,1,5.17.67c.65.18,1.29.38,1.91.62a19.58,19.58,0,0,1,7,4.46l.67.69a20.09,20.09,0,0,1,1.91,2.44,1.88,1.88,0,0,1,.12.18,19.07,19.07,0,0,1,1.89,3.71c.19.49.36,1,.51,1.51a19.67,19.67,0,0,1,.78,5.51,19.7,19.7,0,0,1-16.1,19.42,20.33,20.33,0,0,1-9.39-.41c-.51-.15-1-.32-1.52-.51A19.84,19.84,0,0,1,121,65,20.75,20.75,0,0,1,118.53,63l-.68-.65a19.64,19.64,0,0,1-4.49-6.91C113.13,54.86,112.92,54.23,112.75,53.58Zm-38,30.88a3.18,3.18,0,0,0-3.17-3.18,6.16,6.16,0,0,1-2.25-11.9l.38-.15V68.16a1.5,1.5,0,0,1,3,0V69l.45.12a6.16,6.16,0,0,1,4.6,6,1.5,1.5,0,0,1-3,0,3.17,3.17,0,1,0-3.17,3.17,6.16,6.16,0,0,1,1.57,12.12l-.45.12v.71a1.5,1.5,0,0,1-3,0v-.9l-.38-.15a6.12,6.12,0,0,1-3.92-5.73,1.5,1.5,0,0,1,3,0,3.17,3.17,0,0,0,6.34,0Zm-3.17,27A31.78,31.78,0,1,0,39.8,79.7,31.81,31.81,0,0,0,71.58,111.48Zm0-59.4A27.62,27.62,0,1,1,44,79.7,27.65,27.65,0,0,1,71.58,52.08ZM55.32,97.38a23.77,23.77,0,0,0,3,2.3l.23.14A23.36,23.36,0,0,0,63,102.1c.6.23,1.22.44,1.84.61a24.07,24.07,0,0,0,6.71,1,23.58,23.58,0,0,0,4.62-.45A23.89,23.89,0,0,0,95.67,79.7,23.73,23.73,0,0,0,94.73,73c-.18-.63-.39-1.24-.62-1.84a23.47,23.47,0,0,0-2.23-4.39l-.18-.29a24,24,0,0,0-2.35-3c-.27-.29-.53-.56-.81-.83a23.68,23.68,0,0,0-8.41-5.39,22,22,0,0,0-2.3-.74A24.11,24.11,0,0,0,47.49,79.7a23.42,23.42,0,0,0,.82,6.21c.21.78.46,1.55.74,2.3a23.81,23.81,0,0,0,5.43,8.37C54.76,96.86,55.05,97.13,55.32,97.38Zm-3-12.55a19.58,19.58,0,0,1-.68-5.13A19.88,19.88,0,0,1,71.58,59.91a20.44,20.44,0,0,1,5.18.67c.65.18,1.28.38,1.9.62a19.58,19.58,0,0,1,7,4.46c.23.23.46.46.67.69a19.83,19.83,0,0,1,2,2.62,20.21,20.21,0,0,1,1.9,3.7c.18.5.35,1,.5,1.52a19.63,19.63,0,0,1,.79,5.51A19.77,19.77,0,0,1,75.4,99.12,20.28,20.28,0,0,1,66,98.71c-.52-.15-1-.32-1.52-.51a19.57,19.57,0,0,1-3.89-2,20.08,20.08,0,0,1-2.5-1.93l-.68-.65a19.78,19.78,0,0,1-4.49-6.91C52.71,86.11,52.51,85.49,52.33,84.83Z" data-name="ICON 09"/></svg>