<svg xmlns="http://www.w3.org/2000/svg" viewBox="0 0 64 64"><path fill="#231f20" d="M59,34H58V24a3,3,0,0,0-3-3H54V12a3,3,0,0,0-3-3H9a7.009,7.009,0,0,0-7,7V54a5.006,5.006,0,0,0,5,5H55a3,3,0,0,0,3-3V48h1a3,3,0,0,0,3-3V37A3,3,0,0,0,59,34ZM5.47,12.464A4.93,4.93,0,0,1,9,11H51a1,1,0,0,1,1,1v3H9a1,1,0,0,0,0,2H52v4H9a5.006,5.006,0,0,1-5-5A4.935,4.935,0,0,1,5.47,12.464ZM56,56a1,1,0,0,1-1,1H7a3,3,0,0,1-3-3V20.9l.031.028c.073.074.153.143.23.214s.175.166.268.244.164.124.246.187c.1.074.194.151.295.221.085.057.175.107.262.161.105.066.209.134.318.194.091.05.188.092.282.138.11.054.218.112.332.16s.207.077.311.116.22.087.334.122.237.063.356.093.21.06.318.082c.14.029.284.046.427.067.09.013.179.032.271.041A7.106,7.106,0,0,0,9,23H55a1,1,0,0,1,1,1V34H45a3,3,0,0,0-3,3v8a3,3,0,0,0,3,3H56Zm4-11a1,1,0,0,1-1,1H45a1,1,0,0,1-1-1V37a1,1,0,0,1,1-1H59a1,1,0,0,1,1,1Z"/><path fill="#231f20" d="M49,38a3,3,0,1,0,3,3A3,3,0,0,0,49,38Zm0,4a1,1,0,1,1,1-1A1,1,0,0,1,49,42Z"/></svg>